<svg fill="#000000" xmlns="http://www.w3.org/2000/svg"  viewBox="0 0 48 48" width="48px" height="48px"><path d="M 24.998047 2.0078125 C 22.973047 2.0078125 21.012641 2.3619062 19.181641 3.0039062 L 16.347656 2.9882812 C 9.1796563 3.0212812 6.9104844 5.0383594 5.5214844 8.4433594 C 4.1564844 11.788359 5.8450937 15.950406 7.1210938 18.566406 C 7.4260937 19.191406 7.8144219 19.989844 7.9824219 20.464844 L 7.9824219 22.042969 C 6.2894219 22.281969 4.9824219 23.721469 4.9824219 25.480469 C 4.9824219 27.240469 6.2913281 28.682922 7.9863281 28.919922 C 8.0113281 37.722922 17.579047 46.001953 24.998047 46.001953 C 32.417047 46.001953 41.983766 37.723875 42.009766 28.921875 C 43.693766 28.674875 44.990234 27.236375 44.990234 25.484375 C 44.990234 23.732375 43.694719 22.296828 42.011719 22.048828 L 42.011719 17.171875 C 42.011719 16.792875 41.957703 16.401422 41.845703 15.982422 C 40.715703 8.0074219 33.491047 2.0078125 24.998047 2.0078125 z M 24.998047 5.0078125 C 32.033047 5.0078125 38.004672 9.9423281 38.888672 16.486328 L 38.931641 16.699219 C 38.985641 16.889219 39.013672 17.044828 39.013672 17.173828 L 39.013672 28.884766 L 39.011719 28.884766 C 39.011719 35.887766 30.857094 43.001953 24.996094 43.001953 C 21.920094 43.001953 18.223531 41.033203 15.394531 38.158203 C 16.343531 35.709203 19.173 30 25 30 C 26.654 30 28 28.654 28 27 L 27.998047 23.931641 C 27.998047 23.927641 27.981797 23.483328 28.216797 23.236328 C 28.364797 23.079328 28.628 23 29 23 L 29.3125 23 C 30.7935 23 32 21.7935 32 20.3125 L 32 17.6875 C 32 16.2055 30.7935 15 29.3125 15 L 11.421875 14.960938 C 12.964875 9.1739375 18.604047 5.0078125 24.998047 5.0078125 z M 15.173828 5.0195312 C 11.848828 7.2645313 9.3649688 10.608781 8.4179688 14.550781 C 8.2699688 14.974781 8.1628437 15.413281 8.0898438 15.863281 C 7.2208437 13.760281 6.5588594 11.294266 7.3808594 9.3222656 C 8.2168594 7.3162656 9.7008281 5.3075312 15.173828 5.0195312 z M 18 24 C 19.104 24 20 24.895 20 26 C 20 27.105 19.104 28 18 28 C 16.895 28 16 27.105 16 26 C 16 24.895 16.895 24 18 24 z M 33 24 A 2 2 0 0 0 33 28 A 2 2 0 0 0 33 24 z M 21.009766 36 C 20.452766 36 20.001953 36.450813 20.001953 37.007812 C 20.001953 37.555813 20.446141 38 20.994141 38 L 28.992188 38 C 29.549187 38 30 37.549187 30 36.992188 C 30 36.444188 29.555812 36 29.007812 36 L 21.009766 36 z"/></svg>